<?xml version="1.0" standalone="no"?>
<!DOCTYPE svg PUBLIC "-//W3C//DTD SVG 20010904//EN"
 "http://www.w3.org/TR/2001/REC-SVG-20010904/DTD/svg10.dtd">
<svg version="1.0" xmlns="http://www.w3.org/2000/svg"
 width="896.000000pt" height="1280.000000pt" viewBox="0 0 896.000000 1280.000000"
 preserveAspectRatio="xMidYMid meet">
<metadata>
Created by potrace 1.15, written by Peter Selinger 2001-2017
</metadata>
<g transform="translate(0.000000,1280.000000) scale(0.100000,-0.100000)"
fill="#000000" stroke="none">
<path d="M2710 12781 c22 -7 20 -9 -20 -16 -55 -9 -121 -42 -180 -89 l-45 -35
-30 29 c-17 17 -33 30 -36 30 -7 0 -9 -22 -9 -83 1 -56 -11 -64 -63 -42 -78
33 -233 11 -287 -40 -26 -25 -27 -25 -59 -9 -43 21 -126 13 -200 -21 -29 -14
-54 -25 -56 -25 -1 0 -10 20 -21 45 -26 64 -38 56 -29 -19 5 -51 4 -64 -7 -62
-21 3 -39 17 -33 26 6 9 -23 35 -31 27 -3 -3 -21 1 -39 9 -45 19 -150 18 -207
-2 -25 -8 -64 -31 -87 -50 -22 -20 -41 -32 -41 -28 0 12 70 73 103 90 15 8 27
17 27 20 0 9 -60 -27 -94 -56 -18 -17 -39 -30 -45 -30 -37 0 -160 -90 -183
-133 -6 -12 16 3 48 34 51 48 110 89 129 89 18 0 0 -22 -30 -36 -19 -9 -67
-46 -107 -83 -58 -53 -79 -81 -109 -146 -37 -79 -116 -334 -125 -402 -2 -19
-22 -78 -44 -130 -52 -124 -28 -103 34 29 26 57 54 115 62 130 8 14 14 32 14
39 0 19 51 182 55 177 2 -2 -5 -32 -16 -67 -24 -78 -54 -250 -69 -391 -6 -58
-20 -147 -31 -197 -19 -94 -23 -194 -9 -248 5 -18 6 -1 3 41 -3 39 -2 93 3
120 l8 49 7 -86 c7 -79 37 -215 46 -206 2 2 -3 34 -12 70 -10 44 -15 108 -13
194 1 70 4 115 8 98 4 -22 11 4 25 95 10 69 21 115 23 102 2 -13 -6 -82 -18
-154 -12 -72 -22 -163 -23 -202 0 -67 20 -193 29 -183 3 2 0 24 -5 48 -14 60
-12 180 3 264 9 43 14 58 15 39 2 -50 40 -229 66 -313 14 -42 25 -82 25 -89 0
-8 7 -29 16 -48 17 -35 94 -366 88 -373 -2 -3 -24 5 -48 17 -44 23 -84 20
-101 -7 -3 -6 -17 -11 -30 -11 -16 0 -34 -12 -52 -35 -15 -19 -34 -35 -40 -35
-17 0 -35 -38 -66 -140 -15 -47 -42 -114 -60 -149 -26 -52 -40 -67 -66 -76
-19 -6 -44 -23 -57 -38 -13 -15 -28 -27 -33 -27 -13 0 -57 -59 -66 -88 -4 -13
-20 -39 -36 -57 -17 -19 -29 -40 -27 -47 1 -7 -4 -28 -11 -47 -11 -25 -12 -38
-3 -51 8 -14 4 -27 -22 -66 -50 -76 -259 -457 -320 -584 -64 -134 -86 -209
-86 -298 0 -79 20 -125 72 -163 123 -89 294 -54 582 119 72 44 194 111 271
150 78 39 239 132 358 207 198 123 401 235 427 235 5 0 18 -17 29 -37 11 -21
20 -33 20 -28 0 6 -6 21 -14 35 -8 14 -14 28 -15 32 0 10 56 27 68 19 17 -10
67 -126 116 -268 24 -71 58 -162 76 -203 18 -41 43 -111 56 -155 12 -44 23
-73 23 -64 1 9 -11 57 -25 105 -38 128 -38 131 -26 119 27 -26 66 -196 82
-360 10 -96 19 -150 20 -125 l3 45 7 -55 c6 -47 7 -41 8 47 1 56 6 105 12 108
16 10 12 25 -5 19 -11 -5 -15 2 -15 27 0 19 -7 72 -16 119 -30 166 -42 225
-49 245 -5 16 -3 16 12 -4 18 -24 63 -169 83 -267 6 -28 15 -112 19 -185 l8
-134 2 108 c1 95 4 112 24 142 l24 35 42 -85 c51 -100 123 -173 218 -221 42
-20 82 -51 123 -96 58 -63 60 -68 54 -106 -8 -50 7 -77 51 -93 22 -8 51 -33
79 -69 24 -31 59 -64 79 -73 68 -33 143 -141 191 -276 65 -183 78 -316 70
-736 -6 -327 -7 -343 -31 -414 -36 -108 -34 -161 9 -246 31 -60 38 -89 54
-210 21 -169 21 -157 10 -226 -7 -52 -5 -64 32 -160 56 -143 120 -503 157
-889 17 -173 33 -263 60 -346 27 -78 98 -221 160 -319 101 -160 140 -246 265
-595 48 -135 125 -339 170 -455 188 -482 307 -834 345 -1020 15 -71 36 -155
47 -185 51 -139 50 -135 22 -216 -22 -61 -25 -83 -20 -126 4 -29 9 -81 10
-115 2 -34 7 -68 13 -75 16 -20 45 -201 38 -231 -4 -14 -3 -32 1 -39 5 -7 9
-35 10 -63 1 -27 4 -61 8 -75 6 -19 0 -37 -24 -73 -25 -36 -31 -55 -28 -82 2
-19 0 -35 -4 -35 -5 0 -16 -16 -25 -35 -9 -19 -25 -38 -36 -41 -11 -3 -61 -48
-112 -98 -78 -77 -94 -99 -100 -132 -14 -85 -18 -99 -34 -110 -14 -11 -14 -21
0 -122 11 -72 22 -116 33 -127 9 -9 16 -20 16 -25 0 -11 58 -30 73 -24 7 2 24
-4 37 -16 37 -32 133 -27 281 15 68 19 142 35 164 35 30 0 56 10 95 35 30 19
68 43 84 52 85 51 180 166 192 234 4 19 17 45 29 59 50 56 56 95 26 175 -23
61 -32 215 -13 238 7 8 34 17 61 21 61 8 135 56 173 111 81 118 78 296 -7 385
-27 28 -32 76 -20 172 7 55 7 57 -21 71 -16 8 -61 24 -99 36 -60 17 -73 25
-88 54 -18 34 -80 77 -110 77 -31 0 -47 30 -47 86 0 35 -7 67 -20 91 -22 42
-36 53 -67 53 -20 0 -23 5 -23 40 0 22 -6 57 -14 77 -8 22 -17 97 -21 173 -7
153 -24 278 -61 448 -28 129 -49 245 -89 491 -54 328 -171 653 -383 1062 -32
63 -70 142 -85 177 -18 41 -35 66 -51 73 -16 8 -27 23 -32 43 -3 17 -16 42
-29 56 -19 21 -24 41 -29 121 -3 55 -2 119 4 150 6 30 15 149 20 264 8 182 16
254 64 540 31 182 65 395 75 475 39 280 71 755 71 1057 0 131 4 170 30 285 16
73 34 160 39 193 19 107 40 349 34 391 -9 69 19 142 74 195 l48 46 155 -18
c85 -10 233 -23 328 -30 l172 -13 48 -44 c99 -93 203 -182 212 -182 6 0 10
-30 10 -67 0 -57 5 -76 30 -118 16 -27 30 -59 30 -70 0 -30 19 -45 56 -45 34
0 64 28 64 61 0 31 100 -3 120 -41 6 -11 30 -30 53 -41 23 -12 56 -33 74 -46
18 -14 52 -27 75 -30 24 -3 72 -16 108 -30 108 -43 160 -53 271 -53 122 0 138
7 142 65 l2 39 -84 12 c-46 7 -88 17 -94 23 -6 6 -19 11 -28 11 -10 0 -71 23
-136 50 -80 35 -124 59 -138 78 -11 15 -57 63 -103 107 -108 103 -206 237
-197 272 5 20 10 23 38 19 18 -3 129 -15 247 -26 285 -26 369 -37 468 -60 46
-11 109 -20 140 -20 76 0 98 -7 111 -36 6 -13 23 -29 38 -35 14 -5 32 -17 39
-27 10 -14 27 -17 96 -15 102 3 342 -24 347 -39 2 -6 12 -19 22 -29 12 -12 19
-33 19 -55 0 -72 24 -89 178 -129 269 -68 412 -89 472 -70 11 3 27 19 35 35
14 27 17 28 45 19 24 -9 30 -17 30 -40 0 -37 9 -41 181 -83 198 -48 329 -69
380 -63 117 15 131 26 144 107 4 25 24 117 45 205 21 88 50 210 64 270 14 61
32 130 41 154 8 24 20 73 25 110 6 36 13 73 16 83 6 20 -17 28 -204 68 -158
33 -227 37 -258 15 -16 -11 -29 -12 -55 -5 -50 15 -130 12 -148 -4 -21 -18
-149 -26 -159 -9 -16 26 -189 84 -352 118 -98 21 -253 22 -284 2 -12 -8 -31
-34 -41 -57 l-19 -42 -101 7 c-130 9 -228 29 -290 60 -27 14 -61 25 -75 25
-52 1 -121 -18 -145 -40 -22 -21 -27 -22 -71 -11 -25 7 -69 23 -96 37 -30 15
-80 28 -131 35 -45 5 -116 19 -157 30 -125 33 -700 215 -962 304 -136 46 -309
100 -385 120 l-138 37 -60 65 c-32 36 -89 85 -126 109 -37 23 -98 71 -136 105
-37 34 -98 81 -135 105 -37 24 -72 53 -78 65 -7 12 -47 60 -89 108 -140 155
-212 245 -238 296 -14 27 -50 72 -80 100 -33 30 -67 74 -85 110 -17 33 -59 89
-93 125 l-62 65 -7 125 c-9 161 -68 586 -93 670 -4 13 -4 13 6 0 16 -23 13 -4
-13 84 -14 45 -39 137 -56 206 -29 115 -113 395 -140 465 -15 39 -1 26 54 -53
22 -32 71 -101 107 -153 78 -112 113 -171 146 -247 14 -33 22 -44 18 -27 -10
55 -83 188 -169 313 -82 118 -150 228 -129 207 6 -5 52 -72 102 -148 51 -76
96 -135 101 -132 12 7 29 -26 22 -44 -3 -9 0 -11 9 -6 8 5 11 5 8 1 -4 -4 11
-41 32 -82 22 -41 39 -85 40 -97 0 -12 7 -38 15 -57 9 -24 13 -27 9 -10 -24
133 -42 182 -100 282 -20 33 -35 62 -33 63 9 8 128 -142 160 -201 45 -83 49
-78 8 8 -26 56 -74 119 -186 241 -19 21 -32 42 -29 48 4 5 1 8 -6 7 -6 -2 -14
3 -17 11 -3 9 0 11 8 6 9 -6 9 -3 1 14 -14 25 -23 28 -14 4 11 -32 -12 -1 -60
80 -26 43 -47 79 -47 81 0 14 39 -7 83 -44 42 -35 38 -28 -24 36 -42 43 -107
122 -145 174 -172 241 -264 330 -389 375 -14 5 -16 9 -7 12 7 3 42 -9 77 -26
47 -23 85 -54 141 -114 42 -45 62 -62 43 -37 -60 79 -118 130 -182 161 -34 16
-71 29 -82 29 -11 0 -33 7 -50 16 -57 31 -138 54 -184 53 -37 -1 -41 -3 -21
-8z m99 -17 c2 -2 -7 -4 -22 -4 -14 0 -29 5 -32 10 -6 10 42 4 54 -6z m-215
-87 c-74 -49 -111 -45 -42 5 17 12 28 17 24 10 -10 -16 5 -15 28 3 11 8 24 15
30 15 6 0 -12 -15 -40 -33z m76 -18 c-12 -8 -9 -9 10 -4 69 17 91 14 35 -5
-70 -23 -68 -23 -60 -10 11 17 -11 11 -39 -11 -14 -11 -26 -17 -26 -12 0 13
62 51 85 52 6 0 3 -4 -5 -10z m-244 -56 c1 -13 -1 -23 -6 -23 -11 0 -20 27
-20 58 1 25 1 26 12 8 6 -11 12 -30 14 -43z m80 -11 c-18 -16 -18 -16 -6 6 6
13 14 21 18 18 3 -4 -2 -14 -12 -24z m317 -9 c-7 -2 -21 -2 -30 0 -10 3 -4 5
12 5 17 0 24 -2 18 -5z m186 -128 c28 -21 50 -39 49 -41 -6 -6 -114 51 -138
73 l-23 23 30 -9 c16 -5 53 -25 82 -46z m207 23 l29 -33 -32 29 c-31 28 -38
36 -30 36 2 0 16 -15 33 -32z m-1682 -7 c52 -20 22 -21 -39 -1 -44 15 -50 19
-25 16 19 -2 48 -9 64 -15z m-194 5 c0 -2 -7 -7 -16 -10 -8 -3 -12 -2 -9 4 6
10 25 14 25 6z m187 -31 c15 -9 19 -13 8 -10 -11 4 -47 13 -80 21 l-60 14 52
-4 c29 -3 65 -12 80 -21z m1573 -96 c42 -34 129 -142 101 -124 -9 5 -12 3 -9
-6 3 -8 10 -13 16 -12 7 2 9 -4 5 -14 -4 -11 -2 -14 5 -9 13 8 31 -23 24 -43
-3 -9 0 -11 7 -7 6 4 11 4 10 -1 -4 -21 2 -34 13 -27 6 4 8 3 5 -3 -7 -11 49
-123 67 -135 6 -4 8 -8 4 -8 -4 0 6 -32 23 -70 33 -78 86 -219 100 -264 19
-65 -11 -3 -64 129 -114 288 -191 427 -298 539 -38 40 -65 77 -61 81 4 5 2 5
-4 2 -7 -4 -19 5 -29 19 l-16 25 28 -17 c15 -10 48 -35 73 -55z m-1753 25 c-3
-3 -12 -4 -19 -1 -8 3 -5 6 6 6 11 1 17 -2 13 -5z m1424 -76 c8 -15 8 -18 0
-14 -6 4 -16 16 -22 28 -8 15 -8 18 0 14 6 -4 16 -16 22 -28z m-1456 12 c-27
-12 -43 -12 -25 0 8 5 22 9 30 9 10 0 8 -3 -5 -9z m1713 -107 c27 -42 102
-197 102 -211 0 -13 -104 157 -125 205 -30 66 -17 69 23 6z m-1764 2 c-8 -19
-41 -38 -53 -31 -5 3 -11 -4 -14 -16 -4 -12 -9 -19 -12 -16 -4 3 -1 16 5 28 6
12 14 19 17 16 4 -3 12 3 20 14 17 24 45 27 37 5z m2112 -47 c14 -22 23 -42
21 -44 -2 -3 -12 7 -21 21 -9 14 -24 37 -33 52 -11 16 -13 24 -5 19 7 -4 24
-26 38 -48z m-2136 -14 c0 -8 -16 -32 -35 -52 -19 -20 -44 -48 -55 -62 l-20
-25 12 30 c7 17 25 44 40 60 16 17 28 34 28 39 -1 5 4 13 12 17 18 12 18 11
18 -7z m1879 -210 c72 -183 118 -394 166 -769 11 -89 -25 88 -45 220 -44 285
-77 411 -166 624 -24 57 -44 107 -44 110 1 13 51 -92 89 -185z m99 -46 c12
-40 38 -158 57 -263 20 -104 56 -266 80 -360 43 -169 87 -369 99 -455 6 -40 5
-43 -8 -30 -8 8 -22 59 -31 115 -8 55 -29 154 -45 220 -16 66 -32 134 -35 150
-25 147 -107 510 -116 516 -7 4 -9 16 -6 28 3 12 2 19 -3 16 -11 -7 -22 43
-14 67 3 11 2 18 -3 15 -5 -3 -10 10 -10 29 -2 51 11 34 35 -48z m375 -8 c31
-52 11 -32 -27 28 -20 31 -27 45 -14 30 13 -15 32 -41 41 -58z m-229 -134 c54
-125 67 -161 45 -123 -14 23 -109 246 -109 254 0 14 11 -8 64 -131z m-2067 77
c-3 -10 -5 -4 -5 12 0 17 2 24 5 18 2 -7 2 -21 0 -30z m-162 -64 c-9 -46 -20
-163 -26 -259 -5 -96 -12 -179 -15 -185 -8 -18 6 300 17 366 15 101 30 171 35
166 3 -3 -2 -42 -11 -88z m103 -134 c0 -47 -2 -53 -8 -30 -4 17 -7 77 -7 135
l0 105 7 -75 c4 -41 7 -102 8 -135z m-301 123 c-3 -8 -6 -5 -6 6 -1 11 2 17 5
13 3 -3 4 -12 1 -19z m-10 -60 c-3 -7 -5 -2 -5 12 0 14 2 19 5 13 2 -7 2 -19
0 -25z m30 -30 c-3 -8 -6 -5 -6 6 -1 11 2 17 5 13 3 -3 4 -12 1 -19z m2423
-203 c34 -121 77 -278 95 -350 32 -127 70 -375 63 -412 -3 -16 -7 -15 -29 9
-22 23 -28 44 -38 126 -6 55 -25 164 -42 243 -96 460 -126 619 -116 609 3 -3
33 -104 67 -225z m-2463 183 c-3 -7 -5 -2 -5 12 0 14 2 19 5 13 2 -7 2 -19 0
-25z m2263 -90 c12 -59 20 -113 18 -120 -3 -7 -12 28 -21 77 -9 50 -19 106
-23 125 -4 19 -4 33 -1 30 3 -3 15 -53 27 -112z m279 -23 c0 -5 -8 6 -19 25
-11 19 -19 40 -19 45 0 6 8 -6 19 -25 11 -19 19 -39 19 -45z m16 -89 c72 -162
114 -307 138 -481 25 -172 49 -394 44 -408 -2 -6 -21 14 -42 46 -36 55 -39 64
-46 160 -11 146 -33 275 -85 487 -25 102 -51 214 -59 250 -7 36 -17 74 -21 85
-21 59 13 -9 71 -139z m-2482 -46 c18 -104 33 -298 23 -289 -29 27 -72 347
-58 439 l7 45 6 -50 c3 -27 13 -93 22 -145z m254 148 c-3 -8 -6 -5 -6 6 -1 11
2 17 5 13 3 -3 4 -12 1 -19z m2243 -59 c0 8 2 12 5 9 3 -3 2 -13 -1 -23 -6
-15 -8 -15 -20 6 -7 13 -13 29 -13 34 0 6 6 -1 14 -15 8 -14 14 -19 15 -11z
m-2330 -179 c29 -189 84 -478 127 -653 38 -161 36 -192 -11 -148 -33 31 -52
109 -140 567 -9 45 -16 130 -16 190 0 119 13 274 18 214 1 -19 11 -96 22 -170z
m1843 3 l6 -68 -19 70 c-10 39 -18 93 -18 120 l0 50 13 -52 c7 -28 15 -82 18
-120z m526 62 c0 -5 -8 6 -19 25 -11 19 -19 40 -19 45 0 6 8 -6 19 -25 11 -19
19 -39 19 -45z m-322 13 c-3 -7 -5 -2 -5 12 0 14 2 19 5 13 2 -7 2 -19 0 -25z
m-1898 -288 c136 -484 240 -830 282 -944 42 -110 42 -125 1 -126 -31 0 -185
401 -174 455 3 19 0 32 -11 39 -24 18 -68 211 -152 663 -19 105 -38 200 -41
210 -4 15 -4 15 4 3 6 -8 46 -143 91 -300z m1968 -43 c-3 -11 -68 281 -66 303
0 8 16 -54 35 -139 19 -85 33 -159 31 -164z m-1797 268 c0 -5 -5 -3 -10 5 -5
8 -10 20 -10 25 0 6 5 3 10 -5 5 -8 10 -19 10 -25z m-146 -662 c14 -56 26
-110 25 -120 -3 -54 -149 606 -163 737 -3 30 20 -73 53 -230 32 -157 70 -331
85 -387z m1476 625 c0 -5 -4 -6 -10 -3 -6 4 -10 -9 -10 -30 0 -25 -4 -35 -12
-32 -12 3 -13 61 -2 79 6 10 34 -2 34 -14z m477 -30 c-3 -7 -5 -2 -5 12 0 14
2 19 5 13 2 -7 2 -19 0 -25z m-1867 -49 c12 -39 19 -73 17 -75 -2 -2 -11 22
-21 54 -26 86 -28 92 -23 92 3 0 15 -32 27 -71z m-62 20 c-3 -8 -7 -3 -11 10
-4 17 -3 21 5 13 5 -5 8 -16 6 -23z m1939 -21 c-3 -7 -5 -2 -5 12 0 14 2 19 5
13 2 -7 2 -19 0 -25z m-122 -107 c14 -63 24 -115 21 -118 -4 -5 -56 204 -56
227 0 32 11 -4 35 -109z m143 9 c0 -22 -1 -22 -8 5 -4 17 -8 41 -8 55 0 22 1
22 8 -5 4 -16 8 -41 8 -55z m-1929 20 c0 -9 -4 -8 -9 5 -5 11 -9 27 -9 35 0 9
4 8 9 -5 5 -11 9 -27 9 -35z m1383 -7 c-4 -35 -5 -36 -20 -17 -15 20 -15 15 4
-31 3 -8 2 -15 -4 -15 -14 0 -22 38 -15 71 3 18 12 29 22 29 14 0 16 -7 13
-37z m-1717 -82 c4 -42 3 -50 -5 -33 -5 13 -11 36 -12 53 -1 16 -5 29 -8 29
-4 0 -4 15 -2 33 l5 32 8 -29 c4 -15 10 -53 14 -85z m1762 22 c-2 -16 -4 -5
-4 22 0 28 2 40 4 28 2 -13 2 -35 0 -50z m480 45 c-3 -8 -6 -5 -6 6 -1 11 2
17 5 13 3 -3 4 -12 1 -19z m-1840 -40 c-3 -8 -6 -5 -6 6 -1 11 2 17 5 13 3 -3
4 -12 1 -19z m1850 -10 c-3 -8 -6 -5 -6 6 -1 11 2 17 5 13 3 -3 4 -12 1 -19z
m48 -168 c4 -36 5 -63 2 -60 -5 5 -38 226 -36 245 2 17 27 -117 34 -185z
m-630 150 c18 -34 15 -44 -43 -125 -23 -32 -28 -43 -14 -31 12 11 35 39 51 62
28 43 29 43 46 24 17 -18 17 -32 0 -73 -5 -13 -3 -16 8 -12 11 5 16 -5 22 -42
5 -26 9 -53 10 -58 2 -6 -8 -12 -21 -13 -17 -1 -24 3 -24 17 0 26 -18 38 -72
46 -46 7 -48 9 -56 49 -7 33 -6 47 9 71 10 17 29 49 41 73 12 23 23 42 25 42
1 0 9 -14 18 -30z m229 -70 c9 -52 19 -105 21 -117 3 -13 2 -23 -3 -23 -7 0
-42 191 -42 229 0 34 10 -1 24 -89z m-1433 -108 c17 -63 28 -116 26 -118 -3
-3 -10 19 -17 48 -7 29 -26 96 -41 148 -16 52 -29 100 -28 105 1 18 29 -68 60
-183z m1766 146 c-3 -7 -5 -2 -5 12 0 14 2 19 5 13 2 -7 2 -19 0 -25z m-507
-9 c0 -6 -4 -7 -10 -4 -5 3 -10 11 -10 16 0 6 5 7 10 4 6 -3 10 -11 10 -16z
m597 -11 c-3 -8 -6 -5 -6 6 -1 11 2 17 5 13 3 -3 4 -12 1 -19z m-80 -30 c-3
-7 -5 -2 -5 12 0 14 2 19 5 13 2 -7 2 -19 0 -25z m99 -76 c12 -68 11 -83 -5
-66 -11 12 -26 152 -14 141 4 -5 13 -39 19 -75z m-1969 36 c-3 -8 -6 -5 -6 6
-1 11 2 17 5 13 3 -3 4 -12 1 -19z m1651 -38 c0 -9 -3 -7 -8 5 -5 11 -8 29 -8
40 0 16 2 15 8 -5 4 -14 8 -32 8 -40z m229 23 c-3 -10 -5 -4 -5 12 0 17 2 24
5 18 2 -7 2 -21 0 -30z m-2170 -20 c-3 -10 -5 -4 -5 12 0 17 2 24 5 18 2 -7 2
-21 0 -30z m1860 15 c-3 -8 -6 -5 -6 6 -1 11 2 17 5 13 3 -3 4 -12 1 -19z
m-1076 -70 c18 -71 24 -106 15 -97 -6 6 -46 155 -46 170 0 27 13 -3 31 -73z
m-472 22 c0 -9 -4 -8 -9 5 -5 11 -9 27 -9 35 0 9 4 8 9 -5 5 -11 9 -27 9 -35z
m1469 -25 c0 -16 -2 -15 -8 5 -4 14 -8 34 -8 45 0 16 2 15 8 -5 4 -14 8 -34 8
-45z m9 43 c-3 -8 -6 -5 -6 6 -1 11 2 17 5 13 3 -3 4 -12 1 -19z m390 -10 c-3
-8 -6 -5 -6 6 -1 11 2 17 5 13 3 -3 4 -12 1 -19z m-2170 -30 c-3 -7 -5 -2 -5
12 0 14 2 19 5 13 2 -7 2 -19 0 -25z m823 7 c0 -8 -2 -15 -4 -15 -2 0 -6 7
-10 15 -3 8 -1 15 4 15 6 0 10 -7 10 -15z m-513 -27 c-3 -8 -6 -5 -6 6 -1 11
2 17 5 13 3 -3 4 -12 1 -19z m624 -80 l22 -59 -32 -33 c-34 -35 -39 -62 -16
-92 8 -10 15 -29 15 -40 0 -12 10 -28 22 -36 l22 -15 -28 -18 c-22 -15 -29
-16 -36 -6 -6 11 -25 91 -44 186 -3 11 -9 42 -16 70 -8 38 -8 59 2 91 l12 43
27 -16 c19 -11 35 -36 50 -75z m-104 50 c-3 -7 -5 -2 -5 12 0 14 2 19 5 13 2
-7 2 -19 0 -25z m-807 -59 c4 8 15 -20 27 -68 11 -45 16 -81 11 -81 -4 0 -8
10 -9 23 0 21 -1 21 -8 2 -6 -15 -12 -3 -25 52 -9 40 -15 80 -15 90 1 11 3 9
6 -6 3 -16 7 -20 13 -12z m387 -11 c-3 -8 -6 -5 -6 6 -1 11 2 17 5 13 3 -3 4
-12 1 -19z m20 -90 c-3 -8 -6 -5 -6 6 -1 11 2 17 5 13 3 -3 4 -12 1 -19z m20
-90 c-3 -8 -6 -5 -6 6 -1 11 2 17 5 13 3 -3 4 -12 1 -19z m293 -242 c19 -69
11 -83 -9 -16 -9 30 -10 31 -6 5 2 -16 7 -40 11 -52 4 -13 2 -23 -4 -23 -5 0
-13 21 -17 46 -3 26 -9 54 -12 63 -4 14 -3 14 6 1 16 -23 13 -4 -19 110 -17
58 -30 112 -29 120 0 14 26 -70 79 -254z m-246 88 c20 -72 36 -137 35 -145 -1
-14 -62 196 -75 256 -15 70 7 10 40 -111z m113 30 c8 -49 19 -109 23 -134 14
-74 9 -100 -6 -35 -29 119 -52 276 -39 263 4 -3 13 -46 22 -94z m-332 -59 c15
-44 54 -136 86 -204 33 -68 57 -126 55 -128 -12 -12 -176 370 -176 409 0 21 8
4 35 -77z m152 63 c-3 -8 -6 -5 -6 6 -1 11 2 17 5 13 3 -3 4 -12 1 -19z m250
-20 c-3 -8 -6 -5 -6 6 -1 11 2 17 5 13 3 -3 4 -12 1 -19z m-423 -113 c15 -38
52 -117 83 -174 l55 -104 -24 -22 c-12 -13 -33 -26 -44 -29 -19 -6 -26 4 -63
89 -23 52 -53 128 -67 167 l-24 71 22 44 c12 24 25 40 28 36 4 -5 19 -39 34
-78z m193 63 c-3 -8 -6 -5 -6 6 -1 11 2 17 5 13 3 -3 4 -12 1 -19z m-261 -185
c-2 -3 -7 5 -11 16 -3 12 -9 19 -13 17 -4 -2 -7 10 -8 27 -1 31 0 30 18 -12
10 -24 16 -46 14 -48z m-46 5 c0 -6 27 -64 59 -128 l60 -118 -30 -47 c-23 -36
-42 -52 -85 -71 -46 -20 -58 -31 -74 -67 -26 -59 -51 -83 -124 -118 -35 -17
-129 -84 -209 -149 -126 -102 -272 -198 -283 -187 -2 2 24 75 57 163 33 87 65
171 70 185 7 18 20 29 39 33 24 4 36 18 65 77 20 39 49 89 66 111 16 23 29 48
29 57 0 9 7 25 15 35 8 11 15 32 15 47 0 25 6 29 68 48 38 11 103 43 145 70
l76 50 21 -47 c32 -72 111 -214 117 -209 2 3 -13 36 -34 74 -54 95 -95 191
-88 203 7 12 25 4 25 -12z m389 -82 c2 -25 -18 13 -23 44 l-6 35 14 -35 c8
-19 15 -39 15 -44z m1838 -266 c18 -56 26 -113 15 -106 -6 3 -13 30 -17 59 -4
28 -11 61 -15 72 -4 11 -10 54 -13 95 l-6 75 13 -80 c7 -44 17 -96 23 -115z
m113 -32 c0 -50 -18 -78 -51 -78 -20 0 -24 11 -34 100 -3 30 -8 73 -11 95 l-6
40 51 -55 c45 -49 50 -60 51 -102z m-163 30 c-3 -7 -5 -2 -5 12 0 14 2 19 5
13 2 -7 2 -19 0 -25z m255 -106 c-14 -2 -39 -1 -56 2 -30 6 -31 8 -28 51 l4
45 52 -47 c50 -46 52 -48 28 -51z m-245 66 c-3 -8 -6 -5 -6 6 -1 11 2 17 5 13
3 -3 4 -12 1 -19z m10 -40 c-3 -8 -6 -5 -6 6 -1 11 2 17 5 13 3 -3 4 -12 1
-19z m-1562 -508 c24 -69 52 -147 64 -173 24 -55 29 -98 6 -56 -11 21 -47 122
-139 394 -4 11 0 7 10 -10 9 -16 36 -85 59 -155z m57 -62 c21 -56 38 -106 38
-112 -1 -14 -67 147 -80 193 -16 60 2 24 42 -81z m107 -322 c-1 -16 -49 136
-48 154 0 8 11 -21 25 -64 13 -44 24 -85 23 -90z m105 15 c51 -87 55 -108 27
-142 l-19 -24 -7 40 c-3 22 -17 77 -29 123 -13 45 -22 82 -21 82 1 0 23 -35
49 -79z m-77 -203 c-3 -8 -6 -5 -6 6 -1 11 2 17 5 13 3 -3 4 -12 1 -19z m283
-73 c13 -14 21 -25 18 -25 -2 0 -15 11 -28 25 -13 14 -21 25 -18 25 2 0 15
-11 28 -25z"/>
<path d="M2546 12665 c-11 -8 -15 -15 -9 -15 6 0 16 7 23 15 16 19 11 19 -14
0z"/>
<path d="M3110 12315 c30 -30 57 -55 59 -55 3 0 -19 25 -49 55 -30 30 -57 55
-59 55 -3 0 19 -25 49 -55z"/>
<path d="M1172 10675 c0 -11 4 -31 8 -45 6 -20 8 -21 8 -5 0 11 -4 31 -8 45
-6 20 -8 21 -8 5z"/>
<path d="M3652 9740 c0 -19 2 -27 5 -17 2 9 2 25 0 35 -3 9 -5 1 -5 -18z"/>
<path d="M1645 12460 c3 -5 8 -10 11 -10 2 0 4 5 4 10 0 6 -5 10 -11 10 -5 0
-7 -4 -4 -10z"/>
<path d="M955 12209 c-4 -6 -5 -12 -2 -15 2 -3 7 2 10 11 7 17 1 20 -8 4z"/>
<path d="M3470 12148 c0 -7 40 -78 44 -78 2 0 2 9 1 20 -1 19 -45 74 -45 58z"/>
<path d="M3530 12040 c6 -11 13 -20 16 -20 2 0 0 9 -6 20 -6 11 -13 20 -16 20
-2 0 0 -9 6 -20z"/>
<path d="M3511 11870 c12 -22 25 -38 27 -35 5 4 -37 75 -44 75 -3 0 5 -18 17
-40z"/>
<path d="M3630 11791 c0 -6 4 -13 10 -16 6 -3 7 1 4 9 -7 18 -14 21 -14 7z"/>
<path d="M3615 11435 c9 -103 81 -423 92 -411 2 2 -8 50 -23 107 -15 57 -37
163 -50 234 -13 72 -22 103 -19 70z"/>
<path d="M3621 11254 c0 -11 3 -14 6 -6 3 7 2 16 -1 19 -3 4 -6 -2 -5 -13z"/>
<path d="M3631 11214 c0 -11 3 -14 6 -6 3 7 2 16 -1 19 -3 4 -6 -2 -5 -13z"/>
<path d="M3711 10994 c0 -11 3 -14 6 -6 3 7 2 16 -1 19 -3 4 -6 -2 -5 -13z"/>
<path d="M3725 10950 c3 -14 10 -53 16 -88 6 -35 13 -61 16 -59 6 6 -16 123
-28 150 -9 21 -9 20 -4 -3z"/>
<path d="M1042 10915 c0 -16 4 -43 8 -60 11 -42 11 -1 1 50 -7 34 -9 35 -9 10z"/>
<path d="M1061 10804 c0 -11 3 -14 6 -6 3 7 2 16 -1 19 -3 4 -6 -2 -5 -13z"/>
<path d="M1071 10754 c0 -11 3 -14 6 -6 3 7 2 16 -1 19 -3 4 -6 -2 -5 -13z"/>
<path d="M1081 10714 c0 -11 3 -14 6 -6 3 7 2 16 -1 19 -3 4 -6 -2 -5 -13z"/>
<path d="M2092 8540 c0 -14 2 -19 5 -12 2 6 2 18 0 25 -3 6 -5 1 -5 -13z"/>
</g>
</svg>
